<svg width="48" height="48" viewBox="0 0 48 48" fill="none" xmlns="http://www.w3.org/2000/svg">
<path d="M21.5919 24H27.0179C29.0779 24 30.7459 25.67 30.7459 27.729V19.362C30.7454 20.5916 30.2569 21.7706 29.3876 22.6403C28.5184 23.5099 27.3395 23.9989 26.1099 24M21.5919 37.5V10.5M21.5919 37.5H32.5639L32.8849 32.656M21.5919 37.5H14.0439C15.6439 37.5 16.9409 36.203 16.9409 34.603V13.397C16.9409 11.797 15.6439 10.5 14.0439 10.5H21.5919M21.5919 10.5H31.8259V14.079" stroke="black" stroke-linecap="round" stroke-linejoin="round"/>
<path d="M24 45.5C35.8741 45.5 45.5 35.8741 45.5 24C45.5 12.1259 35.8741 2.5 24 2.5C12.1259 2.5 2.5 12.1259 2.5 24C2.5 35.8741 12.1259 45.5 24 45.5Z" stroke="black" stroke-linecap="round" stroke-linejoin="round"/>
</svg>
