<svg width="48" height="48" viewBox="0 0 48 48" fill="none" xmlns="http://www.w3.org/2000/svg">
<path d="M19.5369 35.9152C23.5946 35.9152 26.8839 32.6258 26.8839 28.5682C26.8839 24.5106 23.5946 21.2212 19.5369 21.2212C15.4793 21.2212 12.1899 24.5106 12.1899 28.5682C12.1899 32.6258 15.4793 35.9152 19.5369 35.9152Z" stroke="black" stroke-linecap="round" stroke-linejoin="round"/>
<path d="M31.821 43.5C34.0241 43.5 35.81 41.714 35.81 39.511C35.81 37.3079 34.0241 35.522 31.821 35.522C29.618 35.522 27.832 37.3079 27.832 39.511C27.832 41.714 29.618 43.5 31.821 43.5Z" stroke="black" stroke-linecap="round" stroke-linejoin="round"/>
<path d="M26.865 28.2692C27.495 28.5692 28.195 28.7292 28.935 28.7292C31.645 28.7292 33.845 26.5292 33.845 23.8192C33.845 21.1092 31.645 18.9092 28.935 18.9092C26.555 18.9092 24.585 20.5892 24.125 22.8292" stroke="black" stroke-linecap="round" stroke-linejoin="round"/>
<path d="M19.537 18.2248C21.2999 18.2248 22.729 16.7957 22.729 15.0328C22.729 13.2699 21.2999 11.8408 19.537 11.8408C17.7741 11.8408 16.345 13.2699 16.345 15.0328C16.345 16.7957 17.7741 18.2248 19.537 18.2248Z" stroke="black" stroke-linecap="round" stroke-linejoin="round"/>
<path d="M25.9209 9.754C27.3718 9.754 28.5479 8.57785 28.5479 7.127C28.5479 5.67615 27.3718 4.5 25.9209 4.5C24.4701 4.5 23.2939 5.67615 23.2939 7.127C23.2939 8.57785 24.4701 9.754 25.9209 9.754Z" stroke="black" stroke-linecap="round" stroke-linejoin="round"/>
</svg>
