<svg width="48" height="48" viewBox="0 0 48 48" fill="none" xmlns="http://www.w3.org/2000/svg">
<path d="M20.1721 35.215C20.1719 34.3698 20.4223 33.5436 20.8917 32.8408C21.3611 32.138 22.0284 31.5901 22.8092 31.2666C23.5899 30.943 24.4491 30.8582 25.2781 31.023C26.107 31.1877 26.8685 31.5946 27.4662 32.1922C28.0639 32.7897 28.4709 33.5511 28.6359 34.38C28.8009 35.2089 28.7163 36.0681 28.3929 36.849C28.0695 37.6298 27.5218 38.2972 26.8191 38.7668C26.1164 39.2364 25.2902 39.487 24.4451 39.487C22.0851 39.487 20.3881 37.565 20.1721 35.215ZM20.1721 35.215L17.4201 5.5L14.6681 35.215M14.6681 35.215C14.4511 37.565 12.7541 39.487 10.3941 39.487C9.54895 39.4868 8.72287 39.236 8.02029 38.7663C7.31771 38.2966 6.77018 37.6291 6.44695 36.8483C6.12372 36.0674 6.0393 35.2082 6.20437 34.3794C6.36944 33.5506 6.77658 32.7893 7.37431 32.1918C7.97204 31.5944 8.73351 31.1876 9.56243 31.0229C10.3914 30.8582 11.2505 30.943 12.0312 31.2666C12.8119 31.5902 13.4791 32.1381 13.9485 32.8409C14.4179 33.5437 14.6683 34.3699 14.6681 35.215Z" stroke="black" stroke-linecap="round" stroke-linejoin="round"/>
<path d="M6.59497 42.5001C7.63997 42.0361 8.77097 40.5641 8.92197 39.2241" stroke="black" stroke-linecap="round" stroke-linejoin="round"/>
<path d="M29.9221 5.52393H38.1781C40.2281 5.52393 41.8791 7.17393 41.8791 9.22393V38.4719M29.9221 24.6939H41.8791M29.9221 11.9139H41.8791M29.9221 18.3039H41.8791" stroke="black" stroke-linecap="round" stroke-linejoin="round"/>
</svg>
