<svg width="48" height="48" viewBox="0 0 48 48" fill="none" xmlns="http://www.w3.org/2000/svg">
<path d="M8.48 24.5C7.68921 23.7145 7.06268 22.7794 6.6369 21.7493C6.21112 20.7192 5.99462 19.6147 6 18.5C6 16.2457 6.89553 14.0837 8.48959 12.4896C10.0837 10.8956 12.2457 10 14.5 10C17.66 10 20.42 11.72 21.88 14.28H24.12C24.8622 12.9782 25.9362 11.8962 27.2326 11.1444C28.5289 10.3926 30.0014 9.99771 31.5 10C33.7543 10 35.9163 10.8956 37.5104 12.4896C39.1045 14.0837 40 16.2457 40 18.5C40 20.84 39 23 37.52 24.5L23 39L8.48 24.5ZM38.92 25.92C40.82 24 42 21.4 42 18.5C42 15.7153 40.8938 13.0445 38.9246 11.0754C36.9555 9.10628 34.2848 8.00004 31.5 8.00004C28 8.00004 24.9 9.70004 23 12.34C22.0302 10.993 20.7532 9.89667 19.275 9.14189C17.7967 8.38711 16.1598 7.99567 14.5 8.00004C11.7152 8.00004 9.04451 9.10628 7.07538 11.0754C5.10625 13.0445 4 15.7153 4 18.5C4 21.4 5.18 24 7.08 25.92L23 41.84L38.92 25.92Z" fill="black"/>
</svg>
