<svg width="50" height="50" viewBox="0 0 50 50" fill="none" xmlns="http://www.w3.org/2000/svg">
<path d="M25.0214 0C11.2288 0 0.0427559 11.1861 0.0427559 24.9786C0.0427559 29.4313 1.23739 33.5574 3.30084 37.1413L0.0427559 48.5446C-0.0658468 48.8704 0.0419074 49.3048 0.259113 49.6306C0.584921 49.9564 1.01933 49.9572 1.34514 49.9572L13.2914 47.0258C16.7667 48.8721 20.7859 49.9572 25.0214 49.9572C38.8139 49.9572 50 38.7712 50 24.9786C50 11.1861 38.8139 0 25.0214 0ZM25.0214 2.17205C37.6193 2.17205 47.8279 12.3807 47.8279 24.9786C47.8279 37.5765 37.6193 47.7852 25.0214 47.7852C21.0031 47.7852 17.2028 46.7 13.9448 44.8538C13.7275 44.7452 13.4005 44.6349 13.1833 44.7435L2.75782 47.3504L5.47289 37.3598C5.58149 37.0339 5.47332 36.8159 5.36471 36.4901C3.40986 33.1234 2.21481 29.2141 2.21481 24.9786C2.21481 12.3807 12.4235 2.17205 25.0214 2.17205ZM17.5422 11.9336C17.3386 11.92 17.2028 11.9463 17.2028 11.9463H15.8983C15.2467 11.9463 14.2706 12.1635 13.4017 13.0323C12.8587 13.5753 10.903 15.5302 10.903 19.0055C10.903 22.698 13.4005 25.847 13.7263 26.1728C13.7263 26.1728 14.1611 26.7171 14.7041 27.4773C15.2471 28.2376 16.0069 29.1064 16.9844 30.1924C18.9392 32.2559 21.6543 34.6434 25.1296 36.0552C26.65 36.7069 27.9532 37.1421 28.9307 37.4679C30.6683 38.0109 32.2986 37.9032 33.4932 37.7946C34.3621 37.686 35.3391 37.2499 36.3165 36.5983C37.2939 35.9466 38.2705 35.1877 38.7049 34.1017C39.0307 33.2329 39.1393 32.4731 39.2479 31.8214V30.9518C39.2479 30.626 39.1406 30.6268 38.9234 30.1924C38.3804 29.3236 37.8356 29.3236 37.184 29.1064C36.8582 28.8892 35.8808 28.4548 35.012 28.0203C34.0346 27.5859 33.2748 27.1515 32.7317 26.9343C32.4059 26.8257 31.9724 26.6072 31.4294 26.7158C30.8863 26.8244 30.3425 27.1507 30.0167 27.6937C29.6909 28.1281 28.4975 29.6477 28.0631 30.0821L27.9528 29.9739C27.5184 29.7567 26.8676 29.5408 26.1074 29.1064C25.2386 28.672 24.2603 28.0203 23.0657 26.9343C21.328 25.4139 20.1334 23.5664 19.8076 22.9147C20.1334 22.4803 20.5682 22.0463 20.7854 21.7205C20.8941 21.6119 20.9823 21.5025 21.057 21.3939C21.1316 21.2853 21.1936 21.178 21.2479 21.0693C21.3565 20.8521 21.4383 20.6354 21.5469 20.4182C21.9813 19.6579 21.7641 18.7887 21.5469 18.3543C21.5469 18.3543 21.4375 18.0289 21.2203 17.7031C21.1117 17.3773 20.8945 16.833 20.6773 16.3986C20.2429 15.4212 19.8084 14.3351 19.5912 13.6835C19.2654 12.9233 18.8319 12.3799 18.2889 12.1627C18.0174 11.9998 17.7458 11.9471 17.5422 11.9336ZM15.8983 14.1184H17.0925H17.311C17.311 14.1184 17.4188 14.2274 17.5274 14.5532C17.7446 15.2048 18.2876 16.2908 18.6134 17.2683C18.8306 17.7027 19.0478 18.2448 19.1564 18.5706C19.265 18.8964 19.3745 19.1149 19.4831 19.3321C19.4831 19.4407 19.5912 19.4403 19.5912 19.4403C19.374 19.8747 19.374 19.982 19.0482 20.3079C18.7224 20.7423 18.2872 21.1767 18.1786 21.3939C18.07 21.6111 17.7446 21.8291 17.5274 22.2636C17.3102 22.698 17.42 23.4578 17.7458 24.0008C18.1803 24.6524 19.4835 26.8253 21.5469 28.6715C22.8502 29.8662 24.044 30.6255 25.0214 31.0599C25.9988 31.603 26.7599 31.821 26.9771 31.9296C27.4115 32.1468 27.8446 32.2542 28.3876 32.2542C28.9307 32.2542 29.3663 31.8206 29.6921 31.4948C30.1266 31.0604 31.2109 29.7567 31.7539 28.8879L31.9724 28.9961C31.9724 28.9961 32.2973 29.1055 32.7317 29.3227C33.1662 29.5399 33.6014 29.7567 34.1444 29.9739C35.1219 30.4083 35.9907 30.8427 36.3165 31.0599L36.9677 31.3866V31.7111C36.9677 32.1455 36.8582 32.7989 36.641 33.4505C36.5324 33.7763 35.8821 34.4266 35.2305 34.861C34.4702 35.2955 33.6006 35.6221 33.2748 35.7307C32.2973 35.8393 31.104 35.9466 29.6921 35.5122C28.8233 35.1864 27.6278 34.8615 26.1074 34.2099C23.0665 32.9066 20.5678 30.7346 18.7216 28.7797C17.8528 27.8023 17.0925 26.9326 16.5495 26.281C16.0065 25.6294 15.791 25.1958 15.5738 24.9786C15.1394 24.5442 13.0751 21.7201 13.0751 19.1137C13.0751 16.3986 14.3792 15.3134 15.0308 14.5532C15.3566 14.1188 15.7897 14.1184 15.8983 14.1184Z" fill="white"/>
</svg>
